<svg width="45" height="77" viewBox="0 0 45 77" fill="none" xmlns="http://www.w3.org/2000/svg">
<rect x="7" y="46" width="7" height="33" rx="3.5" transform="rotate(-90 7 46)" fill="#FDF0D5"/>
<rect x="13" y="17" width="21" height="50" rx="1.2" fill="#FDF0D5"/>
<path d="M2.36364 42.4545V39.6364C4.89394 39.6364 6.65909 39.1061 7.65909 38.0455C8.67424 36.9848 9.18182 35.2121 9.18182 32.7273V25.4545C9.18182 23.3636 9.37879 21.553 9.77273 20.0227C10.1818 18.4924 10.8409 17.2273 11.75 16.2273C12.6591 15.2273 13.8712 14.4848 15.3864 14C16.9015 13.5151 18.7727 13.2727 21 13.2727V17.7273C19.2424 17.7273 17.8561 18 16.8409 18.5455C15.8409 19.0909 15.1288 19.9394 14.7045 21.0909C14.2955 22.2273 14.0909 23.6818 14.0909 25.4545V34.5455C14.0909 35.7273 13.9318 36.803 13.6136 37.7727C13.3106 38.7424 12.7424 39.5758 11.9091 40.2727C11.0758 40.9697 9.88636 41.5076 8.34091 41.8864C6.81061 42.2652 4.81818 42.4545 2.36364 42.4545ZM21 71.4545C18.7727 71.4545 16.9015 71.2121 15.3864 70.7273C13.8712 70.2424 12.6591 69.5 11.75 68.5C10.8409 67.5 10.1818 66.2348 9.77273 64.7045C9.37879 63.1742 9.18182 61.3636 9.18182 59.2727V52C9.18182 49.5152 8.67424 47.7424 7.65909 46.6818C6.65909 45.6212 4.89394 45.0909 2.36364 45.0909V42.2727C4.81818 42.2727 6.81061 42.4621 8.34091 42.8409C9.88636 43.2197 11.0758 43.7576 11.9091 44.4545C12.7424 45.1515 13.3106 45.9848 13.6136 46.9545C13.9318 47.9242 14.0909 49 14.0909 50.1818V59.2727C14.0909 61.0455 14.2955 62.5 14.7045 63.6364C15.1288 64.7727 15.8409 65.6136 16.8409 66.1591C17.8561 66.7197 19.2424 67 21 67V71.4545ZM2.36364 45.0909V39.6364H7.72727V45.0909H2.36364Z" fill="#C1121F"/>
<path d="M44.8182 42.2727V45.0909C42.2879 45.0909 40.5152 45.6212 39.5 46.6818C38.5 47.7424 38 49.5152 38 52V59.2727C38 61.3636 37.7955 63.1742 37.3864 64.7045C36.9924 66.2348 36.3409 67.5 35.4318 68.5C34.5227 69.5 33.3106 70.2424 31.7955 70.7273C30.2803 71.2121 28.4091 71.4545 26.1818 71.4545V67C27.9394 67 29.3182 66.7197 30.3182 66.1591C31.3333 65.6136 32.0455 64.7727 32.4545 63.6364C32.8788 62.5 33.0909 61.0455 33.0909 59.2727V50.1818C33.0909 49 33.2424 47.9242 33.5455 46.9545C33.8636 45.9848 34.4394 45.1515 35.2727 44.4545C36.1061 43.7576 37.2879 43.2197 38.8182 42.8409C40.3636 42.4621 42.3636 42.2727 44.8182 42.2727ZM26.1818 13.2727C28.4091 13.2727 30.2803 13.5151 31.7955 14C33.3106 14.4848 34.5227 15.2273 35.4318 16.2273C36.3409 17.2273 36.9924 18.4924 37.3864 20.0227C37.7955 21.553 38 23.3636 38 25.4545V32.7273C38 35.2121 38.5 36.9848 39.5 38.0455C40.5152 39.1061 42.2879 39.6364 44.8182 39.6364V42.4545C42.3636 42.4545 40.3636 42.2652 38.8182 41.8864C37.2879 41.5076 36.1061 40.9697 35.2727 40.2727C34.4394 39.5758 33.8636 38.7424 33.5455 37.7727C33.2424 36.803 33.0909 35.7273 33.0909 34.5455V25.4545C33.0909 23.6818 32.8788 22.2273 32.4545 21.0909C32.0455 19.9394 31.3333 19.0909 30.3182 18.5455C29.3182 18 27.9394 17.7273 26.1818 17.7273V13.2727ZM44.8182 39.6364V45.0909H39.4545V39.6364H44.8182Z" fill="#C1121F"/>
<path fill-rule="evenodd" clip-rule="evenodd" d="M23.75 59.875C28.3063 59.875 32 57.5245 32 54.625C32 51.7255 28.3063 49.375 23.75 49.375C19.1937 49.375 15.5 51.7255 15.5 54.625C15.5 57.5245 19.1937 59.875 23.75 59.875ZM23.8 57.875C26.3957 57.875 28.5 56.4199 28.5 54.625C28.5 52.8301 26.3957 51.375 23.8 51.375C21.2042 51.375 19.1 52.8301 19.1 54.625C19.1 56.4199 21.2042 57.875 23.8 57.875Z" fill="#00304A"/>
<rect x="21.1" y="17" width="5" height="33" fill="#00304A"/>
<rect x="21.1" y="59" width="5" height="8" fill="#00304A"/>
<path fill-rule="evenodd" clip-rule="evenodd" d="M32 23H25V32H32V30.6828C30.5759 30.6826 29.4214 29.3068 29.4214 27.6097C29.4214 25.9126 30.5759 24.5367 32 24.5365V23Z" fill="#00304A"/>
</svg>
