<svg width="261" height="174" viewBox="0 0 261 174" fill="none" xmlns="http://www.w3.org/2000/svg">
<path d="M123.281 46.0309C123.66 46.0715 124.095 46.1325 124.447 46.2897C125.011 46.5415 125.61 47.1984 125.814 47.7733C126.152 48.7267 126.071 50.5019 125.594 51.4125C125.228 52.1109 124.552 52.4777 123.832 52.71C123.473 52.7148 123.065 52.6857 122.726 52.5644C122.084 52.3341 121.556 51.7348 121.289 51.1144C120.919 50.2523 120.926 48.4565 121.315 47.5955C121.72 46.6988 122.414 46.351 123.281 46.0309Z" fill="#1D263B"/>
<path d="M139.126 46.0813C139.536 45.9999 139.94 46.066 140.331 46.2105C141.001 46.458 141.528 47.0613 141.794 47.7129C142.114 48.4995 142.15 50.3758 141.776 51.1707C141.346 52.0865 140.723 52.4675 139.791 52.7819C139.407 52.7674 138.998 52.7188 138.643 52.5674C138.023 52.3025 137.563 51.7844 137.324 51.1596C136.956 50.1989 136.933 48.4505 137.375 47.5095C137.726 46.7617 138.385 46.3639 139.126 46.0813Z" fill="#1D263B"/>
<path d="M31.83 115.382L58.723 115.351L58.7269 118.293L31.8483 118.3L31.83 115.382Z" fill="#1D263B"/>
<path d="M35.6749 127.485L54.4829 127.531L53.2223 138.466L53.0608 139.865L36.8722 139.886L35.6749 127.485Z" fill="#1D263B"/>
<path d="M122.447 15.0952L125.139 15.0278C129.806 15.1079 134.702 16.8112 138.523 19.472C140.627 20.9373 142.391 22.6416 144.165 24.4752L156.764 24.4759C156.79 28.571 155.638 32.8614 153.033 36.0744C150.474 39.2309 146.825 41.4703 142.732 41.8791C141.548 41.9974 140.329 41.9299 139.138 41.9306L132.852 41.935L122.568 41.9347C120.152 41.9327 117.572 42.1479 115.204 41.6368C113.009 41.1632 111.19 40.0384 109.474 38.6358L109.461 46.5107C108.716 46.3205 107.996 46.247 107.227 46.2465C105.202 46.2448 103.915 47.0205 102.52 48.3977C101.616 49.417 101.005 50.9217 100.995 52.2874C100.981 54.1043 101.59 55.671 102.876 56.9684C104.66 58.7692 106.313 58.7967 108.691 58.7959L108.696 67.6942C105.436 66.6357 102.68 65.19 100.016 63.0198C95.5521 59.3828 92.4342 53.6133 91.8553 47.9039C91.1514 40.9621 93.6454 34.3217 98.923 29.7329C99.7938 28.9758 100.734 28.251 101.721 27.6519C102.365 27.2612 103.237 26.9352 103.785 26.4268C104.509 25.7537 105.055 24.5989 105.697 23.8173C109.889 18.7133 115.922 15.7335 122.447 15.0952Z" fill="#00304A"/>
<path d="M108.696 75.7322C108.671 79.7155 108.412 83.7822 111.427 86.8799C113.26 88.763 115.87 89.8466 118.498 89.8573C121.09 89.8678 123.825 88.8374 125.666 87C128.722 83.9486 128.49 80.1145 128.469 76.1427L150.722 83.2257L151.718 76.7308L233.41 76.6382L223.713 131.705L194.907 131.645L194.879 144.601L202.549 144.61L206.79 149.65L235.633 149.638L235.634 158.794L202.058 158.798L25.5939 158.817L25.6053 149.631L68.2451 149.527C66.7898 149.128 65.3447 148.888 63.9962 148.168C61.6816 146.932 59.8328 144.667 59.0892 142.148C58.4689 140.045 58.5234 137.781 59.1681 135.69C59.6785 134.034 60.5635 132.494 61.328 130.945L65.1281 123.069L75.3088 100.265L78.6391 92.7823C79.2682 91.3652 79.8442 89.8592 80.5934 88.5056C81.6401 86.6138 83.3908 85.1109 85.2346 84.0193C88.3439 82.1787 91.9522 81.2426 95.3518 80.0861L108.696 75.7322ZM83.0506 127.792L80.1137 134.059C77.6818 134.151 75.5934 134.651 73.8767 136.507C72.4082 138.095 71.6611 140.134 71.7748 142.29C71.8925 144.525 73.0539 146.395 74.7001 147.836C75.5227 148.555 76.9661 149.328 78.0454 149.497C79.0658 149.657 80.2874 149.535 81.3256 149.539L88.933 149.56L114.611 149.629L114.665 144.182L117.183 144.178L133.801 144.176C133.84 141.252 133.493 138.81 131.359 136.617C129.317 134.519 126.773 134.057 123.983 134.044L83.1007 134.122L83.0506 127.792ZM187.427 98.5828C184.765 98.9617 182.574 99.7473 180.877 101.953C179.412 103.858 178.891 106.584 179.22 108.943C179.512 111.029 180.845 113.088 182.532 114.326C184.411 115.704 186.369 116.055 188.647 116.001C191.257 115.503 193.458 114.437 195.003 112.195C196.211 110.441 196.811 108.131 196.416 106.017C195.944 103.489 194.612 101.386 192.464 99.9496C191.023 98.9857 189.167 98.3886 187.427 98.5828ZM163.549 131.843C164.686 136.14 166.72 141.321 164.313 145.507C163.077 147.657 161.126 148.796 158.83 149.529L164.611 149.606C165.546 149.611 166.596 149.699 167.513 149.541L169.737 146.888L171.679 144.569L179.042 144.591L179.047 131.805L163.549 131.843ZM146.087 131.87L146.049 149.543L152.035 149.551C153.142 149.554 154.304 149.483 155.403 149.62C154.355 149.248 153.218 148.917 152.242 148.383C150.662 147.518 149.383 145.972 148.608 144.363C147.704 142.486 147.581 140.33 147.288 138.296L146.561 133.772C146.501 133.384 146.472 132.302 146.295 131.998C146.254 131.928 146.156 131.913 146.087 131.87Z" fill="#00304A"/>
<rect x="39" y="46" width="15" height="15" fill="#C1121F"/>
<circle cx="73.5" cy="68.5" r="7.5" fill="#C1121F"/>
<path d="M51.5 69L62.3253 87.75H40.6747L51.5 69Z" fill="#C1121F"/>
<path d="M67.7 57H66.5V50H67.7V50.27C68.08 50.0433 68.47 49.9433 68.87 49.97C69.27 49.99 69.64 50.1133 69.98 50.34C70.32 50.5667 70.5933 50.8733 70.8 51.26C71.0067 51.6467 71.11 52.09 71.11 52.59C71.11 53.0433 71.0067 53.4567 70.8 53.83C70.6 54.2033 70.3267 54.5033 69.98 54.73C69.64 54.95 69.2567 55.0633 68.83 55.07C68.73 55.07 68.6067 55.0633 68.46 55.05C68.3133 55.0367 68.17 55.0133 68.03 54.98C67.8967 54.94 67.7867 54.89 67.7 54.83V57ZM67.7 53.7C68.0867 53.88 68.4467 53.95 68.78 53.91C69.1133 53.87 69.3833 53.7367 69.59 53.51C69.7967 53.2767 69.9 52.97 69.9 52.59C69.9 52.15 69.79 51.8033 69.57 51.55C69.3567 51.2967 69.0833 51.1533 68.75 51.12C68.4167 51.0867 68.0667 51.18 67.7 51.4V53.7ZM76.0498 55H74.6098L73.7198 53.34L72.8498 55H71.4098L72.9498 52.46L71.4398 50H72.8898L73.7198 51.59L74.5398 50H75.9798L74.4898 52.46L76.0498 55Z" fill="#C1121F"/>
<path d="M59.2472 32.4613C59.6692 32.1051 59.7224 31.4741 59.3661 31.0521L53.5602 24.1753C53.2039 23.7533 52.573 23.7001 52.151 24.0563C51.729 24.4126 51.6757 25.0435 52.032 25.4655L57.1929 31.5783L51.0801 36.7391C50.6581 37.0954 50.6049 37.7263 50.9611 38.1483C51.3174 38.5703 51.9483 38.6236 52.3703 38.2673L59.2472 32.4613ZM23.602 77.6973C24.5483 77.3737 24.5483 77.3739 24.5484 77.374C24.5483 77.3739 24.5483 77.3739 24.5483 77.3738C24.5482 77.3734 24.5479 77.3727 24.5475 77.3716C24.5468 77.3695 24.5456 77.3659 24.5439 77.3609C24.5406 77.351 24.5354 77.3354 24.5284 77.3144C24.5144 77.2722 24.4934 77.2081 24.4662 77.1231C24.4118 76.9532 24.3325 76.6997 24.2351 76.3713C24.0403 75.7144 23.7734 74.7587 23.488 73.573C22.9166 71.1993 22.2741 67.9157 21.9854 64.2697C21.4033 56.9199 22.2789 48.3716 27.722 42.6919L26.278 41.3081C20.221 47.6285 19.3977 56.9288 19.9916 64.4276C20.2909 68.2059 20.9551 71.5966 21.5435 74.0411C21.838 75.2645 22.1142 76.2539 22.3176 76.9399C22.4193 77.2829 22.5029 77.5503 22.5615 77.7332C22.5908 77.8248 22.6139 77.8952 22.6299 77.9435C22.6379 77.9676 22.6441 77.9862 22.6485 77.9991C22.6507 78.0056 22.6524 78.0106 22.6536 78.0143C22.6542 78.0161 22.6547 78.0175 22.6551 78.0186C22.6553 78.0191 22.6555 78.0197 22.6555 78.02C22.6557 78.0204 22.6558 78.0208 23.602 77.6973ZM27.722 42.6919C33.2587 36.9145 40.9133 34.3943 47.2777 33.3351C50.4487 32.8073 53.269 32.6473 55.2952 32.6195C56.3075 32.6055 57.1196 32.6246 57.6757 32.647C57.9537 32.6581 58.1676 32.6701 58.3103 32.6791C58.3816 32.6836 58.4352 32.6874 58.4701 32.69C58.4876 32.6913 58.5003 32.6923 58.5083 32.6929C58.5124 32.6933 58.5152 32.6935 58.5168 32.6936C58.5176 32.6937 58.5181 32.6937 58.5182 32.6937C58.5183 32.6937 58.5183 32.6937 58.5183 32.6937C58.5182 32.6937 58.5179 32.6937 58.6021 31.6973C58.6862 30.7008 58.6858 30.7008 58.6853 30.7007C58.6851 30.7007 58.6845 30.7007 58.684 30.7006C58.683 30.7005 58.6816 30.7004 58.68 30.7003C58.6767 30.7 58.6722 30.6997 58.6665 30.6992C58.6551 30.6983 58.6389 30.697 58.618 30.6955C58.5761 30.6924 58.5154 30.6881 58.4367 30.6831C58.2793 30.6732 58.0501 30.6604 57.756 30.6486C57.1678 30.625 56.3196 30.6052 55.2677 30.6197C53.1654 30.6486 50.2415 30.8143 46.9494 31.3622C40.3879 32.4543 32.2414 35.0855 26.278 41.3081L27.722 42.6919Z" fill="#C1121F"/>
</svg>
