<svg width="274" height="174" viewBox="0 0 274 174" fill="none" xmlns="http://www.w3.org/2000/svg">
<path d="M176.943 3.46886C179.352 3.2186 181.905 3.4172 184.33 3.40601C186.434 3.39654 188.794 3.14197 190.872 3.42409C191.155 3.46255 191.344 3.57534 191.581 3.74093C192.189 4.69691 192.011 6.70415 192.014 7.88743L192.007 14.781C194.68 15.3788 197.118 16.7248 199.507 18.1389L203.678 13.646C204.668 12.56 205.587 11.1087 206.833 10.3935C207.635 10.3975 208.075 10.7447 208.643 11.3517L213.561 16.8287C215.043 18.448 217.031 20.1849 218.158 22.1C218.286 22.3178 218.334 22.5196 218.321 22.7819C218.302 23.1736 218.096 23.4606 217.876 23.7444C217.192 24.6247 216.311 25.3823 215.566 26.2063L211.157 31.3122C211.541 32.333 212.099 33.2609 212.523 34.2631C213.175 35.8028 213.645 37.4513 214.095 39.074C214.128 39.1928 214.094 39.3724 214.193 39.4304C214.37 39.534 215.368 39.4316 215.622 39.431C216.938 39.429 223.892 39.1486 224.545 39.7378C225.003 40.1505 225.008 40.612 225.034 41.2216C225.088 42.4858 225.003 43.7672 225.018 45.0348C225.039 46.7766 225.449 55.9972 224.569 56.8935C224.371 57.0946 224.154 57.1736 223.896 57.2103C222.812 57.3633 221.594 57.2393 220.491 57.2361L214.371 57.2792C213.598 60.2125 212.727 62.8067 211.221 65.3696L215.605 71.1838C216.139 71.8789 217.524 73.288 217.718 74.1539C217.805 74.541 217.825 75.0421 217.605 75.3736C216.755 76.6499 215.277 77.8541 214.246 78.9895C212.455 80.9625 210.829 83.1928 208.9 85.0023C208.556 85.3254 208.099 85.7763 207.621 85.7737C206.875 85.7694 200.814 79.2675 199.642 78.1121C197.247 79.4277 194.956 80.6239 192.35 81.3692C192.265 81.3936 192.148 81.3643 192.094 81.4415C192.051 81.5024 192.081 82.5071 192.079 82.6406L192.057 88.7246C192.059 89.7385 192.206 91.0983 191.946 92.0606C191.849 92.4188 191.68 92.5451 191.452 92.8034C190.814 93.0252 190.148 92.9635 189.486 92.9641L186.185 92.9535C185.898 96.2921 186.094 99.7684 186.097 103.124L186.1 121.577L186.102 127C186.101 128.254 186.143 129.509 185.923 130.746C185.704 131.974 185.064 133.181 184.278 134.065C183.273 135.195 182.031 135.897 180.605 136.1C179.25 136.292 177.765 136.121 176.394 136.116L167.954 136.113L138.423 136.146L140.014 159.992L151.689 159.98C153.806 159.966 155.992 159.829 158.105 159.965C158.39 159.983 158.757 160.043 159.003 160.221C159.311 160.445 159.516 160.794 159.576 161.201C159.653 161.723 159.486 162.093 159.19 162.476C158.863 162.664 158.586 162.788 158.216 162.823C157.102 162.928 155.917 162.842 154.796 162.837L148.676 162.833L128.28 162.839L107.516 162.817C105.715 162.819 95.0341 163.235 94.189 162.576C93.8408 162.305 93.6056 161.956 93.5671 161.472C93.534 161.057 93.7165 160.704 93.93 160.387C94.2542 160.184 94.5437 160.03 94.9185 159.985C96.6986 159.772 98.6803 159.992 100.484 159.997L113.045 160.035L114.631 136.139L85.1966 136.033L77.6283 136.048C75.9897 136.066 74.3197 136.167 72.686 136.033C71.9619 135.974 71.2831 135.792 70.6314 135.429C69.3412 134.708 68.1347 133.4 67.7108 131.833L67.6578 131.625C67.398 130.638 67.3602 129.606 67.3439 128.584L67.323 111.02L67.3212 78.4318L67.3499 63.057C67.3383 60.16 67.1066 57.0766 67.4119 54.2052C67.5818 52.606 68.142 51.3766 69.1623 50.2346C70.1438 49.1357 71.3733 48.4515 72.7604 48.2509C75.2457 47.8916 77.8339 48.1694 80.337 48.1869L94.0543 48.1949L142.824 48.1912C142.848 46.7232 142.58 40.6677 143.285 39.8471C143.501 39.596 143.778 39.4947 144.081 39.4353C144.919 39.2709 145.975 39.4037 146.836 39.4023L153.715 39.3948C154.427 36.5186 155.367 34.1882 156.758 31.6468C156.168 30.7351 155.395 29.9671 154.684 29.1735C152.799 27.0684 150.671 24.9978 149.189 22.5115L149.598 21.7556C150.832 19.73 152.925 18.0298 154.486 16.3093C156.138 14.4874 157.663 12.4638 159.475 10.8343C159.728 10.6073 159.971 10.4279 160.302 10.3863C160.429 10.3702 160.709 10.4181 160.819 10.4606C161.548 10.7416 162.68 12.3163 163.261 12.9451L168.051 18.0255C170.575 16.5687 173.109 15.423 175.883 14.6878L175.975 7.93162C175.982 6.85539 175.806 5.34437 176.09 4.33587C176.241 3.79804 176.523 3.6953 176.943 3.46886Z" fill="#00304A"/>
<path d="M138.736 121.204L182.27 121.118L182.273 126.618C182.272 127.714 182.379 128.959 182.106 130.018L182.052 130.208C181.881 130.831 181.572 131.313 181.244 131.844C180.68 132.35 180.145 132.785 179.407 132.891C178.112 133.078 176.662 132.933 175.35 132.931L167.159 132.921L139.471 132.9L138.736 121.204Z" fill="#FDF0D5"/>
<path d="M70.7985 120.596L114.749 120.601L113.967 131.97C113.92 132.332 113.907 132.666 113.696 132.963L112.521 133.048L86.4498 133.002L78.4211 133.039C76.8321 133.047 75.1402 133.161 73.5687 132.939C72.7744 132.826 72.1389 132.474 71.5842 131.824C71.2131 131.389 70.9879 130.854 70.8747 130.271C70.6785 129.263 70.7918 128.075 70.7908 127.038L70.7985 120.596Z" fill="#FDF0D5"/>
<path d="M119.4 108.787L133.62 108.747L136.846 158.697L133.694 158.703L116.265 158.692L119.4 108.787Z" fill="#FDF0D5"/>
<path d="M122.442 127.454L128.305 127.416C129.305 127.408 130.441 127.292 131.422 127.492C131.835 127.577 132.028 127.746 132.261 128.133C132.45 128.448 132.523 128.926 132.404 129.295C132.225 129.85 131.652 130.16 131.183 130.321L124.832 130.282C123.929 130.287 122.549 130.488 121.72 130.12C121.362 129.961 121.142 129.721 121.009 129.314C120.861 128.86 120.951 128.464 121.103 128.037C121.59 127.522 121.764 127.56 122.442 127.454Z" fill="#00304A"/>
<path d="M177.758 10.1235L187.982 10.1296L187.967 16.796C187.967 17.5029 187.842 18.7985 188.039 19.4449C188.157 19.8321 188.355 20.0095 188.679 20.1753C189.703 20.6992 190.918 20.8928 191.993 21.334C193.904 22.1194 195.685 23.2241 197.47 24.3063C198.819 23.2651 199.92 21.8811 201.062 20.5829L204.311 17.2263L211.631 25.4636L207.936 29.4843C206.966 30.545 205.945 31.6299 205.22 32.9186C205.549 34.7529 206.81 36.4212 207.452 38.1704C207.716 38.8886 207.96 39.6183 208.147 40.3659C208.332 41.1091 208.464 42.3709 208.936 42.9389C209.155 43.2029 209.398 43.3192 209.714 43.3605C210.517 43.4652 211.403 43.3523 212.217 43.3607L218.365 43.4443L218.374 54.7116L212.773 54.6896C211.714 54.687 210.6 54.5921 209.558 54.8311C209.323 54.9962 209.175 55.122 209.051 55.4042C208.574 56.4899 208.41 57.7622 208.032 58.8957C207.329 61.0048 206.297 62.9219 205.241 64.8298C205.794 66.1674 206.826 67.3009 207.68 68.4072L211.264 73.08L204.74 80.4039L197.767 73.3591C196.262 74.0184 194.894 75.0061 193.375 75.6615C191.854 76.3176 190.134 76.6419 188.659 77.3488C188.351 77.4966 188.122 77.7045 188.038 78.0784C187.896 78.7182 188.002 79.656 188.007 80.3243L188.022 85.4827C188.012 86.1436 188.072 86.929 187.839 87.5405L187.464 87.605L177.761 87.5944L177.762 80.9582C177.762 80.0876 177.929 78.6291 177.626 77.8214C177.373 77.1467 176.242 76.9576 175.651 76.7995C173.857 76.3189 172.028 75.5962 170.374 74.6885C169.553 74.2387 168.829 73.6801 167.977 73.2858C166.818 73.911 165.94 75.1164 165.038 76.119L161.096 80.5179L153.782 72.5294C155.693 69.8038 158.606 67.7746 160.175 64.8147C159.968 63.9806 159.525 63.244 159.17 62.4784C158.665 61.3888 158.192 60.2569 157.816 59.1041C157.452 57.9857 157.349 55.9067 156.549 55.1334C155.939 54.5453 148.45 54.8219 147.263 54.8195L147.242 43.3256C150.208 43.4089 153.519 43.7395 156.446 43.2658C156.767 42.8011 156.926 42.2756 157.081 41.724C157.524 40.1441 157.968 38.6038 158.587 37.0937L160.416 33.1585C160.083 32.0562 158.767 30.7719 158.022 29.9299L153.876 25.293L161.019 17.203C161.553 17.5204 162.076 18.1942 162.525 18.6552L165.562 21.8608C166.045 22.4159 166.936 23.7401 167.596 23.8913C168.382 24.0717 169.526 23.163 170.212 22.7684C171.511 22.0213 172.91 21.491 174.291 20.9629C175.11 20.6498 176.832 20.4303 177.421 19.8373C177.652 19.6049 177.696 19.4256 177.736 19.0897C177.847 18.1569 177.765 17.1009 177.765 16.151L177.758 10.1235Z" fill="#C1121F"/>
<path d="M183.321 36.4669C184.145 36.4075 184.946 36.4675 185.764 36.5803C188.424 36.9471 191.032 38.8343 192.654 41.1547C194.458 43.7351 195.129 46.9038 194.771 50.1181C194.547 52.1322 193.854 54.0442 192.744 55.6654C190.802 58.5035 187.986 60.0269 184.851 60.5079C182.103 60.6126 179.588 59.96 177.374 58.1009C175.093 56.1852 173.581 53.4142 173.192 50.2616C172.8 47.078 173.515 43.8926 175.278 41.3361C177.317 38.3789 180.045 36.9275 183.321 36.4669Z" fill="#00304A"/>
<path d="M183.092 39.1773C184.86 38.9601 186.685 39.3788 188.221 40.3704C190.322 41.727 191.681 43.9928 192.259 46.5752C192.756 48.7962 192.329 51.5551 191.23 53.4849C189.825 55.9504 187.607 57.1699 185.118 57.7886C183.025 57.8386 181.24 57.7111 179.427 56.4257C177.569 55.1084 176.14 52.8667 175.698 50.4625C175.288 48.2294 175.649 45.5882 176.793 43.6745C178.283 41.1826 180.484 39.7533 183.092 39.1773Z" fill="#FDF0D5"/>
<path d="M183.345 40.0469C185.093 39.8785 187.049 40.5592 188.445 41.7195C189.963 42.9823 190.979 44.9258 191.226 47.0154C191.49 49.2388 190.955 51.5875 189.697 53.3468C188.328 55.2619 186.528 56.17 184.358 56.4352C182.798 56.5827 181.007 56.0678 179.707 55.0986C178.07 53.8775 176.944 51.7549 176.622 49.615C176.299 47.4634 176.697 45.2585 177.859 43.4802C179.269 41.3241 181.078 40.474 183.345 40.0469Z" fill="#00304A"/>
<path d="M182.812 42.8976C183.708 42.8238 184.738 42.7644 185.589 43.1148C186.9 43.6541 188.089 44.8847 188.623 46.3286C189.078 47.5592 189.011 49.2554 188.542 50.4768C187.874 52.2189 186.553 53.0213 185.049 53.69C184.328 53.8461 183.334 53.8869 182.63 53.638C181.299 53.1677 180.042 51.995 179.444 50.5824C178.861 49.204 178.803 47.5784 179.318 46.163C179.966 44.3782 181.291 43.5674 182.812 42.8976Z" fill="#FDF0D5"/>
<path d="M107.801 52.302L142.265 52.3475C142.2 53.6356 141.846 57.2046 142.672 58.144C142.813 58.3039 143.025 58.4638 143.22 58.5159C144.016 58.7303 145.172 58.5721 146.008 58.5735L152.631 58.5809C153.338 61.1454 154.264 63.5215 155.362 65.9029L151.134 70.5902C150.245 71.5862 149.14 72.6797 148.535 73.9213C148.521 74.7929 148.778 75.0675 149.299 75.7042L154.279 81.2171C155.526 82.6037 156.837 84.3781 158.257 85.5281C158.499 85.7238 158.794 85.884 159.1 85.8633C159.482 85.838 159.799 85.5692 160.083 85.3101C160.84 84.6187 161.516 83.6975 162.204 82.9176L166.314 78.3007C167.332 78.6292 168.282 79.2517 169.251 79.7272C170.799 80.4874 172.322 81.025 173.968 81.455L174.031 87.7116C174.036 89.008 173.795 90.9597 174.342 92.1365C175.163 92.927 176.347 92.728 177.37 92.7344L181.37 92.7514L181.362 116.717L148.672 116.734L136.733 116.729L136.71 116.081L136.365 110.805C136.272 109.034 136.302 107.191 136.028 105.442C135.984 105.165 135.926 104.568 135.797 104.334C135.716 104.188 135.568 104.105 135.454 103.99C134.76 103.769 134.076 103.862 133.363 103.883L130.512 103.903L122.169 103.892L118.993 103.883C118.589 103.892 118.005 103.854 117.635 104.05C117.369 104.19 117.293 104.293 117.195 104.599C116.896 105.533 116.864 106.693 116.784 107.681L116.405 113.638C116.368 114.369 116.451 115.395 116.241 116.06L72.1435 116.061L72.1395 75.2789L72.1387 62.5372C72.1397 60.4446 72.0037 58.2121 72.1834 56.1325C72.2681 55.1531 72.4089 54.1778 73.0681 53.4526C73.6181 52.8478 74.3133 52.4974 75.0788 52.396C76.2219 52.2441 77.4753 52.348 78.6289 52.3494L85.1432 52.3571L107.801 52.302Z" fill="#FDF0D5"/>
</svg>
