<svg width="245" height="174" viewBox="0 0 245 174" fill="none" xmlns="http://www.w3.org/2000/svg">
<g clip-path="url(#clip0_1_49)">
<circle cx="124" cy="96" r="48" stroke="#00304A" stroke-width="4"/>
<circle cx="124" cy="96" r="29.25" stroke="#00304A" stroke-width="4"/>
<path d="M79.2164 97.5005C79.1631 96.6916 79.3346 96.0496 79.7309 95.5745C80.1272 95.0994 80.7085 94.8366 81.4748 94.7861L87.861 94.3653C88.606 94.3163 89.2001 94.4909 89.6433 94.8893C90.0871 95.2983 90.3343 95.886 90.3848 96.6524L90.712 101.618C90.733 101.937 90.6746 102.187 90.5369 102.367C90.4097 102.546 90.2131 102.645 89.947 102.662C89.6916 102.679 89.4834 102.602 89.3224 102.431C89.1728 102.27 89.0879 102.035 89.0675 101.726L88.7646 97.1279C88.7505 96.915 88.6701 96.7493 88.5234 96.6307C88.3773 96.5227 88.1818 96.4768 87.937 96.493L85.7178 96.6392L85.9861 100.71C86.0071 101.03 85.9488 101.279 85.811 101.459C85.6838 101.639 85.4872 101.737 85.2211 101.755C84.9657 101.772 84.7575 101.695 84.5966 101.523C84.447 101.362 84.362 101.127 84.3417 100.819L84.0734 96.7475L81.6147 96.9095C81.3699 96.9257 81.1822 96.9968 81.0516 97.123C80.9216 97.2599 80.8636 97.4347 80.8777 97.6476L81.2038 102.597C81.2248 102.916 81.1665 103.166 81.0287 103.346C80.9015 103.525 80.7049 103.624 80.4388 103.641C80.1834 103.658 79.9752 103.581 79.8142 103.41C79.6647 103.249 79.5797 103.014 79.5594 102.705L79.2164 97.5005Z" fill="#00304A"/>
<path d="M85.82 117.428C85.7354 117.654 85.5863 117.816 85.3728 117.913C85.1398 118.019 84.8966 118.013 84.6432 117.894C84.4462 117.796 84.3035 117.65 84.2151 117.456C84.0957 117.194 84.0968 116.9 84.2183 116.575L85.5055 113.457L82.3014 112.367C81.9764 112.246 81.7542 112.054 81.6348 111.792C81.5464 111.598 81.5299 111.394 81.5853 111.181C81.6619 110.912 81.8167 110.724 82.0496 110.618C82.2632 110.521 82.483 110.515 82.7091 110.599L86.182 111.777L87.4546 108.666C87.5744 108.389 87.7411 108.201 87.9547 108.104C88.1876 107.998 88.4308 108.004 88.6843 108.123C88.8724 108.202 89.0129 108.343 89.1057 108.547C89.2251 108.809 89.2161 109.123 89.0787 109.491L87.9079 112.363L90.8365 113.349C91.2038 113.487 91.4472 113.686 91.5666 113.949C91.6595 114.152 91.6737 114.351 91.6095 114.544C91.5329 114.814 91.3781 115.001 91.1452 115.108C90.9316 115.205 90.6809 115.208 90.393 115.116L87.2101 114.034L85.82 117.428Z" fill="#00304A"/>
<path d="M86.2921 128.749C86.0574 128.516 85.9358 128.275 85.9273 128.026C85.9189 127.777 86.0198 127.547 86.2302 127.335L93.8835 119.624C94.0939 119.412 94.3236 119.31 94.5725 119.316C94.8214 119.323 95.0632 119.443 95.2979 119.676C95.525 119.901 95.6466 120.142 95.6627 120.398C95.6787 120.655 95.5815 120.889 95.3711 121.101L95.1457 121.328C95.7868 121.333 96.3529 121.437 96.8439 121.638C97.3425 121.848 97.8151 122.174 98.2618 122.617C98.8523 123.204 99.2506 123.832 99.4568 124.502C99.6705 125.18 99.6768 125.855 99.4756 126.527C99.2896 127.199 98.9035 127.831 98.3174 128.421C97.7388 129.004 97.1105 129.395 96.4324 129.594C95.7543 129.792 95.0754 129.787 94.3958 129.579C93.7162 129.37 93.0736 128.965 92.468 128.364C92.0137 127.913 91.6839 127.45 91.4785 126.976C91.2806 126.494 91.1842 125.947 91.1895 125.336L87.7178 128.811C87.5074 129.023 87.274 129.122 87.0175 129.108C86.761 129.094 86.5192 128.974 86.2921 128.749ZM93.3336 126.878C93.8938 127.435 94.4756 127.719 95.0791 127.732C95.6976 127.745 96.2774 127.478 96.8184 126.933C97.3594 126.388 97.6175 125.81 97.5926 125.199C97.5828 124.589 97.2978 124.005 96.7375 123.449C96.1546 122.87 95.5425 122.571 94.9014 122.551C94.2752 122.53 93.6992 122.785 93.1732 123.315C92.6472 123.845 92.3929 124.427 92.4104 125.06C92.4429 125.694 92.7506 126.3 93.3336 126.878Z" fill="#00304A"/>
<path d="M105.437 137.145C104.599 136.771 103.936 136.293 103.447 135.713C102.959 135.133 102.666 134.494 102.569 133.796C102.485 133.093 102.609 132.372 102.94 131.631C103.475 130.433 104.236 129.658 105.223 129.304C106.22 128.955 107.352 129.063 108.618 129.629C109.397 129.977 110.029 130.405 110.515 130.914C111.01 131.427 111.325 131.977 111.46 132.563C111.61 133.143 111.561 133.711 111.313 134.267C111.104 134.734 110.792 135.027 110.377 135.145C109.972 135.268 109.497 135.208 108.951 134.964L104.554 133C104.31 133.546 104.315 134.045 104.569 134.497C104.837 134.943 105.346 135.334 106.096 135.669C106.884 136.021 107.635 136.146 108.346 136.043C108.745 135.988 109.032 135.999 109.207 136.078C109.373 136.151 109.499 136.301 109.585 136.527C109.677 136.766 109.679 136.983 109.592 137.178C109.488 137.412 109.308 137.553 109.052 137.603C108.504 137.732 107.92 137.757 107.301 137.679C106.681 137.601 106.06 137.423 105.437 137.145ZM108.967 133.359C109.133 133.433 109.262 133.456 109.357 133.428C109.455 133.39 109.537 133.298 109.603 133.152C109.755 132.812 109.68 132.457 109.377 132.088C109.084 131.723 108.611 131.396 107.959 131.104C107.306 130.813 106.729 130.719 106.228 130.822C105.736 130.929 105.388 131.212 105.183 131.669L108.967 133.359Z" fill="#00304A"/>
<path d="M117.068 140.554C116.739 140.523 116.492 140.414 116.327 140.227C116.162 140.04 116.094 139.798 116.122 139.501L116.703 133.288C116.732 132.98 116.839 132.755 117.024 132.611C117.22 132.458 117.478 132.396 117.796 132.426C118.115 132.456 118.357 132.564 118.521 132.751C118.686 132.938 118.754 133.18 118.726 133.478L118.677 134.003C119.046 133.609 119.459 133.321 119.915 133.139C120.383 132.947 120.872 132.875 121.382 132.923L121.732 132.955C122.072 132.987 122.325 133.086 122.492 133.252C122.67 133.407 122.747 133.618 122.722 133.884C122.697 134.149 122.582 134.347 122.377 134.478C122.184 134.599 121.917 134.644 121.577 134.612L121.036 134.561C120.324 134.495 119.734 134.67 119.267 135.087C118.811 135.494 118.546 136.091 118.473 136.877L118.209 139.696C118.181 139.994 118.063 140.218 117.856 140.37C117.649 140.522 117.386 140.584 117.068 140.554Z" fill="#00304A"/>
<path d="M129.09 131.344C128.701 131.412 128.367 131.363 128.089 131.196C127.819 131.016 127.653 130.753 127.592 130.406C127.53 130.059 127.597 129.761 127.791 129.51C127.993 129.246 128.289 129.08 128.678 129.012C129.066 128.943 129.401 128.998 129.681 129.175C129.971 129.341 130.146 129.597 130.207 129.944C130.268 130.29 130.193 130.596 129.979 130.861C129.775 131.114 129.478 131.275 129.09 131.344ZM130.699 140.353C130.373 140.411 130.106 140.371 129.898 140.235C129.69 140.098 129.56 139.883 129.508 139.589L128.421 133.444C128.369 133.15 128.418 132.903 128.567 132.703C128.715 132.504 128.953 132.375 129.278 132.318C129.593 132.262 129.86 132.301 130.079 132.436C130.298 132.571 130.433 132.785 130.485 133.079L131.572 139.224C131.624 139.518 131.57 139.766 131.411 139.967C131.251 140.169 131.014 140.297 130.699 140.353Z" fill="#00304A"/>
<path d="M143.444 136.168C142.625 136.581 141.836 136.793 141.078 136.805C140.319 136.817 139.639 136.64 139.037 136.275C138.439 135.895 137.958 135.343 137.593 134.619C137.003 133.447 136.883 132.367 137.233 131.379C137.593 130.385 138.392 129.577 139.63 128.953C140.392 128.569 141.124 128.35 141.825 128.295C142.535 128.236 143.16 128.339 143.7 128.604C144.245 128.856 144.654 129.253 144.927 129.796C145.158 130.253 145.188 130.68 145.017 131.076C144.856 131.468 144.509 131.798 143.976 132.067L139.674 134.234C139.943 134.767 140.333 135.078 140.844 135.167C141.359 135.242 141.984 135.095 142.717 134.725C143.489 134.336 144.06 133.834 144.43 133.217C144.639 132.873 144.829 132.658 145 132.572C145.162 132.49 145.358 132.487 145.587 132.563C145.831 132.643 146 132.779 146.096 132.969C146.211 133.198 146.207 133.427 146.084 133.656C145.837 134.162 145.488 134.631 145.036 135.062C144.585 135.492 144.054 135.861 143.444 136.168ZM142.742 131.04C142.904 130.959 143.004 130.872 143.041 130.782C143.075 130.681 143.055 130.56 142.983 130.417C142.815 130.083 142.493 129.917 142.016 129.919C141.548 129.916 140.995 130.075 140.357 130.396C139.719 130.718 139.281 131.105 139.044 131.559C138.816 132.008 138.815 132.457 139.041 132.905L142.742 131.04Z" fill="#00304A"/>
<path d="M153.506 129.329C153.28 129.57 153.043 129.698 152.794 129.713C152.545 129.728 152.312 129.634 152.095 129.429L147.546 125.157C147.321 124.945 147.208 124.722 147.209 124.488C147.208 124.239 147.318 123.998 147.537 123.765C147.756 123.532 147.99 123.408 148.238 123.392C148.487 123.377 148.72 123.472 148.938 123.676L149.276 123.994C149.102 122.792 149.465 121.713 150.363 120.756C151.064 120.01 151.853 119.646 152.729 119.664C153.604 119.666 154.446 120.048 155.255 120.807L157.879 123.272C158.096 123.476 158.202 123.707 158.195 123.964C158.187 124.221 158.074 124.466 157.855 124.699C157.629 124.94 157.391 125.068 157.143 125.083C156.894 125.099 156.661 125.004 156.444 124.8L153.82 122.335C153.376 121.919 152.928 121.702 152.475 121.686C152.022 121.67 151.613 121.857 151.247 122.245C150.692 122.836 150.436 123.459 150.48 124.115C150.515 124.762 150.844 125.378 151.466 125.963L153.53 127.902C153.747 128.106 153.853 128.337 153.846 128.594C153.839 128.85 153.725 129.095 153.506 129.329Z" fill="#00304A"/>
<path d="M164.194 113.982C163.632 115.296 162.867 116.176 161.9 116.621C160.923 117.061 159.841 117.028 158.654 116.52C157.467 116.013 156.705 115.258 156.369 114.255C156.022 113.248 156.129 112.088 156.691 110.774C156.989 110.077 157.375 109.5 157.85 109.041C158.319 108.569 158.833 108.261 159.393 108.118C159.591 108.063 159.773 108.072 159.94 108.143C160.195 108.252 160.364 108.481 160.446 108.829C160.484 108.985 160.466 109.151 160.39 109.327C160.331 109.465 160.241 109.594 160.119 109.716C159.988 109.834 159.84 109.922 159.676 109.979C159.367 110.079 159.086 110.26 158.834 110.524C158.577 110.773 158.372 111.075 158.221 111.428C157.924 112.124 157.887 112.752 158.112 113.312C158.33 113.858 158.788 114.28 159.484 114.578C160.2 114.884 160.836 114.93 161.392 114.715C161.942 114.487 162.366 114.024 162.664 113.328C162.996 112.553 163.019 111.78 162.734 111.008C162.577 110.616 162.555 110.288 162.668 110.023C162.743 109.847 162.872 109.71 163.052 109.613C163.339 109.457 163.615 109.436 163.88 109.55C164.047 109.621 164.179 109.759 164.277 109.963C164.565 110.62 164.702 111.276 164.688 111.931C164.669 112.573 164.505 113.256 164.194 113.982Z" fill="#00304A"/>
<path d="M167.67 98.9306C167.621 99.8466 167.412 100.636 167.045 101.3C166.678 101.964 166.186 102.466 165.569 102.807C164.943 103.136 164.225 103.279 163.415 103.235C162.105 103.164 161.108 102.73 160.425 101.935C159.742 101.129 159.439 100.034 159.514 98.6489C159.56 97.7968 159.734 97.0531 160.035 96.4178C160.337 95.7719 160.738 95.2809 161.236 94.9447C161.725 94.5973 162.273 94.44 162.88 94.4729C163.392 94.5006 163.777 94.6871 164.036 95.0323C164.295 95.3668 164.409 95.8323 164.377 96.4288L164.116 101.238C164.713 101.27 165.177 101.087 165.508 100.688C165.829 100.278 166.012 99.6633 166.057 98.8432C166.103 97.9805 165.951 97.2351 165.601 96.6073C165.406 96.2549 165.314 95.9828 165.325 95.7911C165.334 95.61 165.429 95.4389 165.609 95.2777C165.8 95.1065 166.002 95.0266 166.215 95.0382C166.47 95.052 166.667 95.1695 166.805 95.3906C167.121 95.8564 167.354 96.3924 167.503 96.9987C167.651 97.605 167.707 98.2489 167.67 98.9306ZM162.872 96.9882C162.882 96.8071 162.857 96.6776 162.797 96.5996C162.727 96.521 162.612 96.4773 162.452 96.4687C162.079 96.4485 161.775 96.6456 161.538 97.0601C161.303 97.464 161.166 98.0227 161.127 98.7363C161.089 99.4499 161.207 100.023 161.483 100.454C161.759 100.875 162.148 101.099 162.648 101.126L162.872 96.9882Z" fill="#00304A"/>
<mask id="path-13-outside-1_1_49" maskUnits="userSpaceOnUse" x="88" y="14" width="71" height="101" fill="black">
<rect fill="white" x="88" y="14" width="71" height="101"/>
<path d="M91.8125 86.6875C91.8125 83.9375 92.25 81.4583 93.125 79.25C94.0417 77 95.3333 74.9792 97 73.1875C98.6667 71.3542 100.646 69.6875 102.938 68.1875C105.271 66.6875 107.833 65.2292 110.625 63.8125C105.542 60.8542 101.625 57.5 98.875 53.75C96.1667 50 94.8125 45.625 94.8125 40.625C94.8125 37.6667 95.3125 34.7917 96.3125 32C97.3542 29.1667 99.0417 26.6667 101.375 24.5C103.708 22.3333 106.771 20.6042 110.562 19.3125C114.354 17.9792 119 17.3125 124.5 17.3125C129 17.3125 132.938 17.875 136.312 19C139.729 20.125 142.583 21.6875 144.875 23.6875C149.458 27.6875 151.75 33.0417 151.75 39.75C151.75 42.2917 151.333 44.5417 150.5 46.5C149.708 48.4583 148.562 50.2292 147.062 51.8125C145.562 53.4375 143.75 54.9375 141.625 56.3125C139.5 57.6875 137.104 59.0625 134.438 60.4375C142.188 64.2292 147.667 68.0833 150.875 72C152.583 74.0417 153.812 76.2083 154.562 78.5C155.312 80.7917 155.688 83.2292 155.688 85.8125C155.688 93.8958 152.812 100.146 147.062 104.562C141.229 109.021 133.188 111.25 122.938 111.25C117.604 111.25 112.979 110.604 109.062 109.312C105.188 108.021 101.958 106.271 99.375 104.062C96.8333 101.854 94.9375 99.25 93.6875 96.25C92.4375 93.25 91.8125 90.0625 91.8125 86.6875ZM135.625 39.5C135.625 37 135.146 34.625 134.188 32.375C133.271 30.125 131.917 28.2917 130.125 26.875C128.375 25.4583 126.229 24.75 123.688 24.75C120.146 24.75 117.438 26.1458 115.562 28.9375C113.729 31.6875 112.812 35.0625 112.812 39.0625C112.812 43.5208 114.021 46.9792 116.438 49.4375C118.854 51.8542 122.25 54.0833 126.625 56.125C129.833 54.2917 132.125 52.1042 133.5 49.5625C134.917 46.9792 135.625 43.625 135.625 39.5ZM123.562 104C128.021 104 131.521 102.5 134.062 99.5C136.646 96.4583 137.938 92.625 137.938 88C137.938 83.9583 136.479 80.4792 133.562 77.5625C132.021 76.1042 130.062 74.6875 127.688 73.3125C125.354 71.8958 122.542 70.4375 119.25 68.9375C116.208 70.8958 113.75 73.3542 111.875 76.3125C110.042 79.2708 109.125 82.8958 109.125 87.1875C109.125 92.0625 110.417 96.0833 113 99.25C115.625 102.417 119.146 104 123.562 104Z"/>
</mask>
<path d="M91.8125 86.6875C91.8125 83.9375 92.25 81.4583 93.125 79.25C94.0417 77 95.3333 74.9792 97 73.1875C98.6667 71.3542 100.646 69.6875 102.938 68.1875C105.271 66.6875 107.833 65.2292 110.625 63.8125C105.542 60.8542 101.625 57.5 98.875 53.75C96.1667 50 94.8125 45.625 94.8125 40.625C94.8125 37.6667 95.3125 34.7917 96.3125 32C97.3542 29.1667 99.0417 26.6667 101.375 24.5C103.708 22.3333 106.771 20.6042 110.562 19.3125C114.354 17.9792 119 17.3125 124.5 17.3125C129 17.3125 132.938 17.875 136.312 19C139.729 20.125 142.583 21.6875 144.875 23.6875C149.458 27.6875 151.75 33.0417 151.75 39.75C151.75 42.2917 151.333 44.5417 150.5 46.5C149.708 48.4583 148.562 50.2292 147.062 51.8125C145.562 53.4375 143.75 54.9375 141.625 56.3125C139.5 57.6875 137.104 59.0625 134.438 60.4375C142.188 64.2292 147.667 68.0833 150.875 72C152.583 74.0417 153.812 76.2083 154.562 78.5C155.312 80.7917 155.688 83.2292 155.688 85.8125C155.688 93.8958 152.812 100.146 147.062 104.562C141.229 109.021 133.188 111.25 122.938 111.25C117.604 111.25 112.979 110.604 109.062 109.312C105.188 108.021 101.958 106.271 99.375 104.062C96.8333 101.854 94.9375 99.25 93.6875 96.25C92.4375 93.25 91.8125 90.0625 91.8125 86.6875ZM135.625 39.5C135.625 37 135.146 34.625 134.188 32.375C133.271 30.125 131.917 28.2917 130.125 26.875C128.375 25.4583 126.229 24.75 123.688 24.75C120.146 24.75 117.438 26.1458 115.562 28.9375C113.729 31.6875 112.812 35.0625 112.812 39.0625C112.812 43.5208 114.021 46.9792 116.438 49.4375C118.854 51.8542 122.25 54.0833 126.625 56.125C129.833 54.2917 132.125 52.1042 133.5 49.5625C134.917 46.9792 135.625 43.625 135.625 39.5ZM123.562 104C128.021 104 131.521 102.5 134.062 99.5C136.646 96.4583 137.938 92.625 137.938 88C137.938 83.9583 136.479 80.4792 133.562 77.5625C132.021 76.1042 130.062 74.6875 127.688 73.3125C125.354 71.8958 122.542 70.4375 119.25 68.9375C116.208 70.8958 113.75 73.3542 111.875 76.3125C110.042 79.2708 109.125 82.8958 109.125 87.1875C109.125 92.0625 110.417 96.0833 113 99.25C115.625 102.417 119.146 104 123.562 104Z" fill="#C1121F"/>
<path d="M93.125 79.25L90.3467 78.1181L90.3413 78.1315L90.336 78.1449L93.125 79.25ZM97 73.1875L99.1966 75.2308L99.2083 75.2182L99.2198 75.2055L97 73.1875ZM102.938 68.1875L101.315 65.664L101.305 65.6706L101.295 65.6774L102.938 68.1875ZM110.625 63.8125L111.983 66.4877L116.899 63.9928L112.134 61.2196L110.625 63.8125ZM98.875 53.75L96.443 55.5065L96.4493 55.5153L96.4558 55.5241L98.875 53.75ZM96.3125 32L93.4968 30.9648L93.4924 30.9765L93.4882 30.9883L96.3125 32ZM110.562 19.3125L111.53 22.1522L111.544 22.1475L111.558 22.1426L110.562 19.3125ZM136.312 19L135.364 21.8461L135.374 21.8495L136.312 19ZM144.875 23.6875L142.902 25.9478L144.875 23.6875ZM150.5 46.5L147.74 45.3253L147.729 45.3504L147.719 45.3756L150.5 46.5ZM147.062 51.8125L144.885 49.7493L144.871 49.7634L144.858 49.7777L147.062 51.8125ZM134.438 60.4375L133.063 57.7711L127.755 60.5079L133.119 63.1323L134.438 60.4375ZM150.875 72L148.554 73.9011L148.564 73.9132L148.574 73.9252L150.875 72ZM147.062 104.562L148.884 106.946L148.89 106.942L147.062 104.562ZM109.062 109.312L108.114 112.159L108.123 112.162L109.062 109.312ZM99.375 104.062L97.4074 106.327L97.4165 106.335L97.4257 106.343L99.375 104.062ZM134.188 32.375L131.409 33.5069L131.418 33.5288L131.427 33.5506L134.188 32.375ZM130.125 26.875L128.237 29.2067L128.251 29.2176L128.264 29.2282L130.125 26.875ZM115.562 28.9375L113.072 27.2648L113.066 27.2734L115.562 28.9375ZM116.438 49.4375L114.298 51.5406L114.307 51.5498L114.316 51.5588L116.438 49.4375ZM126.625 56.125L125.356 58.8436L126.764 59.5006L128.113 58.7297L126.625 56.125ZM133.5 49.5625L130.87 48.12L130.865 48.1275L130.861 48.135L133.5 49.5625ZM134.062 99.5L131.776 97.558L131.774 97.5607L134.062 99.5ZM133.562 77.5625L135.684 75.4412L135.654 75.4117L135.624 75.3831L133.562 77.5625ZM127.688 73.3125L126.131 75.8769L126.157 75.8931L126.184 75.9088L127.688 73.3125ZM119.25 68.9375L120.494 66.2076L119.003 65.5283L117.626 66.4151L119.25 68.9375ZM111.875 76.3125L109.341 74.7065L109.333 74.7193L109.325 74.7322L111.875 76.3125ZM113 99.25L110.675 101.146L110.683 101.156L110.69 101.165L113 99.25ZM94.8125 86.6875C94.8125 84.257 95.1986 82.1608 95.914 80.3551L90.336 78.1449C89.3014 80.7559 88.8125 83.618 88.8125 86.6875H94.8125ZM95.9033 80.3819C96.6818 78.4709 97.7756 76.7584 99.1966 75.2308L94.8034 71.1442C92.8911 73.2 91.4015 75.5291 90.3467 78.1181L95.9033 80.3819ZM99.2198 75.2055C100.699 73.5785 102.479 72.0731 104.58 70.6976L101.295 65.6774C98.8126 67.3019 96.6344 69.1298 94.7802 71.1695L99.2198 75.2055ZM104.56 70.711C106.797 69.2725 109.27 67.8641 111.983 66.4877L109.267 61.1373C106.396 62.5942 103.744 64.1025 101.315 65.664L104.56 70.711ZM112.134 61.2196C107.316 58.4158 103.745 55.3177 101.294 51.9759L96.4558 55.5241C99.5051 59.6823 103.767 63.2926 109.116 66.4054L112.134 61.2196ZM101.307 51.9935C98.9983 48.7968 97.8125 45.0482 97.8125 40.625H91.8125C91.8125 46.2018 93.3351 51.2032 96.443 55.5065L101.307 51.9935ZM97.8125 40.625C97.8125 38.0123 98.2528 35.4795 99.1368 33.0117L93.4882 30.9883C92.3722 34.1038 91.8125 37.321 91.8125 40.625H97.8125ZM99.1282 33.0352C99.998 30.6695 101.41 28.5618 103.416 26.6984L99.3336 22.3016C96.6737 24.7715 94.7103 27.6639 93.4968 30.9648L99.1282 33.0352ZM103.416 26.6984C105.372 24.8825 108.038 23.3419 111.53 22.1522L109.595 16.4728C105.504 17.8664 102.045 19.7842 99.3336 22.3016L103.416 26.6984ZM111.558 22.1426C114.936 20.9547 119.223 20.3125 124.5 20.3125V14.3125C118.777 14.3125 113.772 15.0037 109.567 16.4824L111.558 22.1426ZM124.5 20.3125C128.759 20.3125 132.363 20.8459 135.364 21.8461L137.261 16.1539C133.512 14.9041 129.241 14.3125 124.5 14.3125V20.3125ZM135.374 21.8495C138.479 22.8717 140.963 24.2548 142.902 25.9478L146.848 21.4272C144.204 19.1202 140.98 17.3783 137.251 16.1505L135.374 21.8495ZM142.902 25.9478C146.761 29.3155 148.75 33.8082 148.75 39.75H154.75C154.75 32.2752 152.155 26.0595 146.848 21.4272L142.902 25.9478ZM148.75 39.75C148.75 41.9649 148.387 43.8032 147.74 45.3253L153.26 47.6747C154.279 45.2801 154.75 42.6184 154.75 39.75H148.75ZM147.719 45.3756C147.072 46.9747 146.135 48.4294 144.885 49.7493L149.24 53.8757C150.99 52.029 152.344 49.942 153.281 47.6244L147.719 45.3756ZM144.858 49.7777C143.551 51.1936 141.939 52.5361 139.995 53.7938L143.255 58.8312C145.561 57.3389 147.574 55.6814 149.267 53.8473L144.858 49.7777ZM139.995 53.7938C137.966 55.1067 135.657 56.4331 133.063 57.7711L135.812 63.1039C138.551 61.6919 141.034 60.2683 143.255 58.8312L139.995 53.7938ZM133.119 63.1323C140.717 66.8497 145.747 70.4741 148.554 73.9011L153.196 70.0989C149.586 65.6925 143.658 61.6086 135.756 57.7427L133.119 63.1323ZM148.574 73.9252C150.063 75.7046 151.092 77.5401 151.711 79.4331L157.414 77.5669C156.533 74.8766 155.104 72.3787 153.176 70.0748L148.574 73.9252ZM151.711 79.4331C152.356 81.4028 152.688 83.5235 152.688 85.8125H158.688C158.688 82.9349 158.269 80.1806 157.414 77.5669L151.711 79.4331ZM152.688 85.8125C152.688 93.0863 150.154 98.4052 145.235 102.183L148.89 106.942C155.471 101.886 158.688 94.7054 158.688 85.8125H152.688ZM145.241 102.179C140.102 106.106 132.784 108.25 122.938 108.25V114.25C133.591 114.25 142.356 111.936 148.884 106.946L145.241 102.179ZM122.938 108.25C117.835 108.25 113.542 107.631 110.002 106.463L108.123 112.162C112.417 113.578 117.373 114.25 122.938 114.25V108.25ZM110.011 106.466C106.431 105.273 103.561 103.694 101.324 101.782L97.4257 106.343C100.356 108.848 103.944 110.769 108.114 112.159L110.011 106.466ZM101.343 101.798C99.1373 99.8818 97.5223 97.6534 96.4567 95.0962L90.9183 97.4038C92.3527 100.847 94.5294 103.827 97.4074 106.327L101.343 101.798ZM96.4567 95.0962C95.3649 92.4758 94.8125 89.682 94.8125 86.6875H88.8125C88.8125 90.443 89.5101 94.0242 90.9183 97.4038L96.4567 95.0962ZM138.625 39.5C138.625 36.6052 138.068 33.8295 136.948 31.1994L131.427 33.5506C132.224 35.4205 132.625 37.3948 132.625 39.5H138.625ZM136.966 31.2431C135.867 28.5452 134.209 26.2801 131.986 24.5218L128.264 29.2282C129.624 30.3033 130.675 31.7048 131.409 33.5069L136.966 31.2431ZM132.013 24.5433C129.66 22.6388 126.823 21.75 123.688 21.75V27.75C125.636 27.75 127.09 28.2779 128.237 29.2067L132.013 24.5433ZM123.688 21.75C119.21 21.75 115.539 23.5923 113.072 27.2648L118.053 30.6102C119.336 28.6994 121.082 27.75 123.688 27.75V21.75ZM113.066 27.2734C110.841 30.6116 109.812 34.5963 109.812 39.0625H115.812C115.812 35.5287 116.617 32.7634 118.059 30.6016L113.066 27.2734ZM109.812 39.0625C109.812 44.0673 111.182 48.3704 114.298 51.5406L118.577 47.3344C116.86 45.5879 115.812 42.9744 115.812 39.0625H109.812ZM114.316 51.5588C117.059 54.3018 120.785 56.7102 125.356 58.8436L127.894 53.4064C123.715 51.4565 120.649 49.4065 118.559 47.3162L114.316 51.5588ZM128.113 58.7297C131.674 56.6952 134.433 54.1434 136.139 50.99L130.861 48.135C129.817 50.065 127.993 51.8881 125.137 53.5203L128.113 58.7297ZM136.13 51.005C137.867 47.8379 138.625 43.9384 138.625 39.5H132.625C132.625 43.3116 131.966 46.1204 130.87 48.12L136.13 51.005ZM123.562 107C128.77 107 133.16 105.207 136.351 101.439L131.774 97.5607C129.882 99.7933 127.271 101 123.562 101V107ZM136.349 101.442C139.465 97.7735 140.938 93.217 140.938 88H134.938C134.938 92.033 133.827 95.1432 131.776 97.558L136.349 101.442ZM140.938 88C140.938 83.1445 139.15 78.9075 135.684 75.4412L131.441 79.6838C133.808 82.0508 134.938 84.7721 134.938 88H140.938ZM135.624 75.3831C133.872 73.7259 131.712 72.1759 129.191 70.7162L126.184 75.9088C128.413 77.1991 130.17 78.4825 131.501 79.7419L135.624 75.3831ZM129.244 70.7481C126.784 69.2542 123.861 67.7419 120.494 66.2076L118.006 71.6674C121.222 73.1331 123.925 74.5375 126.131 75.8769L129.244 70.7481ZM117.626 66.4151C114.23 68.6012 111.457 71.368 109.341 74.7065L114.409 77.9185C116.043 75.3403 118.186 73.1904 120.874 71.4599L117.626 66.4151ZM109.325 74.7322C107.136 78.2647 106.125 82.4675 106.125 87.1875H112.125C112.125 83.3242 112.948 80.277 114.425 77.8928L109.325 74.7322ZM106.125 87.1875C106.125 92.6148 107.575 97.3457 110.675 101.146L115.325 97.3536C113.258 94.8209 112.125 91.5102 112.125 87.1875H106.125ZM110.69 101.165C113.932 105.075 118.328 107 123.562 107V101C119.964 101 117.318 99.7587 115.31 97.3354L110.69 101.165Z" fill="#FDF0D5" mask="url(#path-13-outside-1_1_49)"/>
<path d="M168.784 25.632H163.348V31.104H158.848V25.632H153.376V21.132H158.848V15.696H163.348V21.132H168.784V25.632Z" fill="#00304A"/>
</g>
<defs>
<clipPath id="clip0_1_49">
<rect width="245" height="174" fill="white"/>
</clipPath>
</defs>
</svg>
