<svg width="255" height="170" viewBox="0 0 255 170" fill="none" xmlns="http://www.w3.org/2000/svg">
<path d="M122.897 23.0695L122.972 23.0645C125.862 22.874 128.864 23.1259 131.726 23.5533C140.948 24.9306 149.448 28.6928 156.474 34.8655C166.017 43.2491 171.798 55.0512 172.598 67.7297C173.36 79.8316 169.355 92.5719 161.284 101.693C155.425 108.313 147.83 113.424 139.382 116.1C135.351 117.377 131.099 118.071 126.882 118.321L126.661 118.34C124.795 118.449 122.887 118.325 121.027 118.175C110.563 117.332 100.924 113.159 93.0372 106.245C85.8321 99.9277 80.7408 91.42 78.4495 82.1232C77.6702 78.9608 77.2717 75.7971 77.0636 72.5517C76.8811 69.7051 77.1065 66.7613 77.544 63.9448C78.9484 54.9029 83.0475 46.1011 89.1043 39.2344C95.6886 31.7697 104.647 26.4115 114.355 24.1968C117.18 23.5523 120.01 23.2469 122.897 23.0695ZM93.4843 94.7255C90.6423 89.6552 88.6112 83.7377 87.8443 77.9755L87.3638 72.3592L80.5987 72.3388C80.8809 81.2743 83.8064 90.3873 89.4687 97.3978L93.4843 94.7255ZM87.3698 68.8766C87.3764 67.1034 87.6331 65.3009 87.9085 63.5508C88.8197 57.7577 90.7176 51.9721 93.511 46.8122L89.4952 44.3027C84.151 51.2088 80.7799 60.1502 80.5609 68.9074C80.9144 69.0639 81.7632 68.9565 82.1867 68.9542C83.8886 68.9454 85.6799 69.0385 87.3698 68.8766ZM95.3583 43.8337C96.8056 41.9118 98.2271 39.9674 99.8405 38.1796C102.586 35.1378 105.841 32.4971 109.299 30.3101C110.6 29.4878 112.192 28.4544 113.703 28.1637L113.833 27.9421C107.071 29.61 100.655 33.0769 95.4602 37.7089C94.0807 38.939 92.8467 40.2955 91.5645 41.622L95.3583 43.8337ZM95.1877 97.7558C94.0779 98.4258 92.782 99.1455 91.8021 99.9899C96.7187 105.517 103.059 109.93 110.072 112.342C111.269 112.753 112.473 113.225 113.733 113.394L113.732 113.312L113.491 113.229C112.213 112.917 110.985 112.141 109.859 111.479C103.92 107.986 99.3233 103.2 95.1877 97.7558Z" fill="#1D1F44"/>
<path d="M95.3583 43.8337C96.8055 41.9118 98.227 39.9674 99.8404 38.1796C102.586 35.1378 105.841 32.4971 109.299 30.3101C110.6 29.4878 112.192 28.4544 113.703 28.1637C107.763 33.1588 104.157 39.6218 101.33 46.747L95.3583 43.8337Z" fill="#FDF0D5"/>
<path d="M95.1876 97.7558L101.333 94.564C103.905 101.132 107.176 107.365 112.489 112.15C112.754 112.389 113.531 112.93 113.491 113.229C112.213 112.917 110.985 112.141 109.859 111.479C103.92 107.986 99.3233 103.2 95.1876 97.7558Z" fill="#FDF0D5"/>
<path d="M148.457 94.7283C151.728 96.3414 154.97 97.794 157.942 99.9421C157.796 100.341 157.096 100.945 156.785 101.277C152.991 105.319 147.928 108.566 142.929 110.907L135.499 113.547C141.831 108.964 145.631 101.837 148.457 94.7283Z" fill="#FDF0D5"/>
<path d="M135.475 27.797C136.594 28.0226 137.705 28.4759 138.79 28.8261C146.479 31.3077 152.641 35.6876 158.173 41.4839L154.765 43.6166C154.061 44.0639 153.35 44.5602 152.613 44.9476C151.268 45.6539 149.809 46.2339 148.423 46.8589C146.471 41.2283 143.234 35.5328 139.143 31.1893C137.999 29.9747 136.712 28.9139 135.475 27.797Z" fill="#FDF0D5"/>
<path d="M93.511 46.8122L98.5575 49.2358C98.9367 49.4149 99.9769 49.7814 100.188 50.0759L98.7608 56.0654C97.9148 60.3159 97.4172 64.6187 97.298 68.9509L87.3698 68.8766C87.3764 67.1035 87.6331 65.3009 87.9084 63.5509C88.8197 57.7577 90.7176 51.9721 93.511 46.8122Z" fill="#FDF0D5"/>
<path d="M87.3638 72.3593L95.0105 72.3832C95.5314 72.3851 96.8829 72.2432 97.2959 72.4402C97.5642 78.8769 98.5305 85.0808 100.262 91.2891L93.4843 94.7255C90.6423 89.6552 88.6111 83.7378 87.8443 77.9755L87.3638 72.3593Z" fill="#FDF0D5"/>
<path d="M126.613 27.4141C127.685 27.7591 128.838 28.0983 129.861 28.5715C132.369 29.7327 134.601 31.4947 136.515 33.4717C139.999 37.0703 142.58 41.5999 144.477 46.21C144.664 46.6665 145.21 47.6122 145.202 48.0789L142.596 48.877C139.701 49.5396 136.857 50.3333 133.914 50.7773C131.494 51.1424 129.048 51.237 126.609 51.3744L126.613 27.4141Z" fill="#FDF0D5"/>
<path d="M122.702 27.5627L123.039 27.5414C123.249 27.8706 123.145 28.5569 123.145 28.9615L123.15 32.936L123.151 51.3396C117.766 51.3273 112.407 50.2809 107.234 48.8485L104.463 47.9801L108.662 39.3326C109.356 38.0792 110.258 36.8774 111.143 35.7537C114.249 31.8077 117.858 28.9572 122.702 27.5627Z" fill="#FDF0D5"/>
<path d="M126.619 89.9315C129.062 90.078 131.501 90.2134 133.923 90.5818C137.798 91.1713 141.539 92.2544 145.263 93.4518C144.524 94.9046 143.993 96.4892 143.3 97.9703C141.815 101.141 139.934 104.005 137.779 106.754C134.764 110.306 131.169 112.884 126.626 114.051L126.619 89.9315Z" fill="#FDF0D5"/>
<path d="M122.007 89.926L123.163 89.8874L123.163 114.051C122.424 113.816 121.657 113.634 120.938 113.344C117.586 111.994 114.977 109.862 112.492 107.284C109.396 103.848 106.866 99.5846 105.259 95.2511C105.064 94.7253 104.683 93.9368 104.665 93.3891C105.873 92.814 107.214 92.4562 108.499 92.0934C112.939 90.8398 117.414 90.2534 122.007 89.926Z" fill="#FDF0D5"/>
<path d="M121.091 72.3977L123.232 72.3943L123.181 86.3866C116.41 86.7565 109.974 87.8139 103.548 90.0408L103.346 89.8339C103.02 88.8799 102.835 87.887 102.589 86.9101C101.402 82.1781 100.841 77.3052 100.693 72.4355L121.091 72.3977Z" fill="#FDF0D5"/>
<path d="M103.489 51.269C107.439 52.6186 111.562 53.6293 115.705 54.165C118.177 54.4845 120.675 54.6107 123.165 54.7091L123.172 68.9517L120.407 68.9497L100.727 68.9529C100.703 67.011 100.901 65.1095 101.114 63.183C101.562 59.1291 102.328 55.1786 103.489 51.269Z" fill="#FDF0D5"/>
<path d="M145.948 51.4748C146.16 51.4497 146.156 51.4557 146.335 51.5744C147.99 57.3489 149.059 62.9423 149.353 68.9515L130.069 68.9497L126.62 68.9527L126.628 54.723C133.223 54.6853 139.645 53.3175 145.948 51.4748Z" fill="#FDF0D5"/>
<path d="M126.639 72.3905L149.342 72.4296C149.363 73.6388 149.229 74.8387 149.14 76.0427C148.841 80.0867 148.154 84.0825 146.999 87.9714L146.298 90.1687C141.475 88.5189 136.463 87.3048 131.39 86.7471C129.813 86.5737 128.19 86.5548 126.603 86.486L126.639 72.3905Z" fill="#FDF0D5"/>
<path d="M160.329 44.1793C161.137 45.1808 161.837 46.2825 162.528 47.3675C166.516 53.6308 168.964 61.5386 169.072 68.9736L158.459 68.9733L152.765 68.9388L152.493 65.0743C151.971 59.9778 151.098 55.0842 149.46 50.2186L154.705 47.752C156.667 46.7431 158.579 45.52 160.329 44.1793Z" fill="#FDF0D5"/>
<path d="M159.639 72.3968L169.084 72.4576C168.943 74.4018 168.806 76.3585 168.485 78.2825C167.684 83.0823 166.074 87.6825 163.798 91.976C162.821 93.815 161.754 95.6545 160.423 97.262L159.663 96.8114L149.577 91.379L150.971 86.2303C152.036 81.683 152.572 77.0988 152.737 72.4365L159.639 72.3968Z" fill="#FDF0D5"/>
<path d="M54.4718 127.027C54.6348 127.383 54.7268 127.793 54.8422 128.167L55.4567 130.103L56.8146 134.408L57.3361 136.049L66.9656 136.037L59.2156 141.583L61.825 150.411C61.6098 150.215 61.3202 150.065 61.0787 149.899L59.5295 148.824L56.7406 146.891L54.4598 145.322L53.0502 146.296L50.1377 148.309L48.1796 149.66C47.8273 149.901 47.4724 150.18 47.0936 150.376C47.1077 150.258 47.1491 150.142 47.1815 150.028L47.3487 149.45L47.7425 148.107L49.0247 143.857L49.7187 141.569L42 136.051L51.5793 136.029C51.603 135.916 51.6559 135.801 51.6921 135.691L51.9155 134.996L52.5346 133.04L54.4718 127.027Z" fill="#C1121F"/>
<path d="M88.736 126.77C88.899 127.126 88.991 127.536 89.1064 127.91L89.7209 129.846L91.0787 134.151L91.6002 135.793L101.23 135.78L93.4798 141.326L96.0892 150.155C95.874 149.958 95.5844 149.808 95.3428 149.642L93.7937 148.567L91.0047 146.635L88.724 145.066L87.3144 146.039L84.4018 148.052L82.4437 149.403C82.0915 149.645 81.7365 149.923 81.3578 150.119C81.3718 150.001 81.4133 149.885 81.4457 149.772L81.6129 149.194L82.0067 147.85L83.2889 143.6L83.9829 141.312L76.2642 135.795L85.8435 135.772C85.8672 135.659 85.9201 135.544 85.9563 135.434L86.1797 134.74L86.7988 132.784L88.736 126.77Z" fill="#C1121F"/>
<path d="M123 126.513C123.163 126.869 123.255 127.279 123.371 127.653L123.985 129.59L125.343 133.894L125.864 135.536L135.494 135.523L127.744 141.07L130.353 149.898C130.138 149.701 129.849 149.551 129.607 149.385L128.058 148.311L125.269 146.378L122.988 144.809L121.579 145.782L118.666 147.796L116.708 149.147C116.356 149.388 116.001 149.666 115.622 149.862C115.636 149.745 115.677 149.628 115.71 149.515L115.877 148.937L116.271 147.594L117.553 143.343L118.247 141.056L110.528 135.538L120.108 135.515C120.131 135.403 120.184 135.288 120.22 135.178L120.444 134.483L121.063 132.527L123 126.513Z" fill="#C1121F"/>
<path d="M157.264 126.257C157.427 126.613 157.519 127.022 157.635 127.396L158.249 129.333L159.607 133.638L160.129 135.279L169.758 135.266L162.008 140.813L164.617 149.641C164.402 149.445 164.113 149.295 163.871 149.129L162.322 148.054L159.533 146.121L157.252 144.552L155.843 145.526L152.93 147.539L150.972 148.89C150.62 149.131 150.265 149.409 149.886 149.606C149.9 149.488 149.942 149.372 149.974 149.258L150.141 148.68L150.535 147.337L151.817 143.087L152.511 140.799L144.792 135.281L154.372 135.259C154.396 135.146 154.448 135.031 154.485 134.921L154.708 134.226L155.327 132.27L157.264 126.257Z" fill="#C1121F"/>
<path d="M191.528 126C191.691 126.356 191.783 126.766 191.899 127.14L192.513 129.076L193.871 133.381L194.393 135.022L204.022 135.01L196.272 140.556L198.882 149.385C198.666 149.188 198.377 149.038 198.135 148.872L196.586 147.797L193.797 145.865L191.516 144.295L190.107 145.269L187.194 147.282L185.236 148.633C184.884 148.875 184.529 149.153 184.15 149.349C184.164 149.231 184.206 149.115 184.238 149.001L184.405 148.423L184.799 147.08L186.081 142.83L186.775 140.542L179.057 135.025L188.636 135.002C188.66 134.889 188.713 134.774 188.749 134.664L188.972 133.97L189.591 132.014L191.528 126Z" fill="#C1121F"/>
</svg>
